<?xml version="1.0" encoding="UTF-8" standalone="no"?>
<svg
   xmlns:dc="http://purl.org/dc/elements/1.1/"
   xmlns:cc="http://creativecommons.org/ns#"
   xmlns:rdf="http://www.w3.org/1999/02/22-rdf-syntax-ns#"
   xmlns:svg="http://www.w3.org/2000/svg"
   xmlns="http://www.w3.org/2000/svg"
   xmlns:sodipodi="http://sodipodi.sourceforge.net/DTD/sodipodi-0.dtd"
   xmlns:inkscape="http://www.inkscape.org/namespaces/inkscape"
   viewBox="0 0 563.729 255.321"
   version="1.1"
   id="svg88"
   sodipodi:docname="site-logo.svg"
   width="165"
   height="74.18"
   inkscape:version="1.0 (4035a4fb49, 2020-05-01)">
  <metadata
     id="metadata92">
    <rdf:RDF>
      <cc:Work
         rdf:about="">
        <dc:format>image/svg+xml</dc:format>
        <dc:type
           rdf:resource="http://purl.org/dc/dcmitype/StillImage" />
        <dc:title>Site Logo</dc:title>
      </cc:Work>
    </rdf:RDF>
  </metadata>
  <sodipodi:namedview
     inkscape:document-rotation="0"
     pagecolor="#ffffff"
     bordercolor="#666666"
     borderopacity="1"
     objecttolerance="10"
     gridtolerance="10"
     guidetolerance="10"
     inkscape:pageopacity="0"
     inkscape:pageshadow="2"
     inkscape:window-width="1366"
     inkscape:window-height="715"
     id="namedview90"
     showgrid="false"
     inkscape:zoom="1.078"
     inkscape:cx="256.49512"
     inkscape:cy="97.138016"
     inkscape:window-x="-8"
     inkscape:window-y="-8"
     inkscape:window-maximized="1"
     inkscape:current-layer="svg88" />
  <defs
     id="defs54">
    <style
       id="style52">
			.cls-1,.cls-5{fill:#fff;}.cls-10,.cls-2,.cls-4,.cls-9{fill:#f28705;}.cls-3{fill:#f2b705;}.cls-4{opacity:0.6;}.cls-5{font-size:369.18px;}.cls-5,.cls-6{font-family:BrushScriptStd,
			Brush Script
			Std;}.cls-6{font-size:201.55px;}.cls-6,.cls-7,.cls-8{fill:#1a7373;}.cls-8{font-size:126.39px;font-family:ActionMan,
			Action Man;}.cls-9{letter-spacing:-0.04em;}.cls-10{letter-spacing:0em;}
		</style>
  </defs>
  <title
     id="title56">Site Logo</title>
  <g
     id="g111"
     transform="matrix(1.240968,0,0,1.24638,-774.34954,-582.08513)">
    <g
       transform="translate(387.00649,-47.227911)"
       data-name="Layer 2"
       id="Layer_2">
      <g
         transform="translate(5.2475457,-5.2475459)"
         data-name="Layer 1"
         id="Layer_1-2">
        <g
           transform="translate(-254.34656,476.21477)"
           id="g39">
          <g
             id="g58" />
        </g>
        <g
           transform="matrix(0.63197517,0,0,0.62252485,246.68368,-104.01838)"
           id="g112">
          <g
             id="g92">
            <g
               transform="translate(1.0724286e-5)"
               id="g119">
              <text
                 transform="translate(-254.34656,476.21477)"
                 y="779.52753"
                 x="222.66"
                 class="cls-6"
                 id="text69">e</text>
              <text
                 class="cls-8"
                 transform="matrix(1.11,0,0,1,47.673444,1256.5748)"
                 id="text81">- <tspan
   class="cls-2"
   x="55.299999"
   y="0"
   id="tspan75">J</tspan><tspan
   class="cls-9"
   x="120.84"
   y="0"
   id="tspan77">h</tspan><tspan
   class="cls-10"
   x="182.86"
   y="0"
   id="tspan79">ola</tspan></text>
            </g>
            <g
               transform="matrix(0.54273578,0,0,0.62408183,285.66368,913.45809)"
               id="g51">
              <g
                 id="Jhola">
                <path
                   class="cls-2"
                   d="m 453.81,260.44 c 5.39,-21.94 31.38,-114.57 82,-96.6 a 6.74,6.74 0 0 1 2.36,1.42 c 3.91,3.57 15.87,17.45 15.34,53.08 -0.08,5.42 4.4,9.49 9.11,8.17 l 1.08,-0.3 a 8.05,8.05 0 0 0 5.56,-7.88 c 0.06,-18 -3.57,-68.31 -45.82,-74.15 a 6.13,6.13 0 0 0 -1.13,-0.07 c -6.12,0.17 -57,4.89 -82.68,112 -1.44,6 3.45,11.57 8.87,10.06 v 0 a 7.76,7.76 0 0 0 5.31,-5.73 z"
                   id="path58" />
                <path
                   class="cls-4"
                   d="m 720.43,386.79 -23,-156.44 -40.12,-2 v 0 l -26.17,-26.17 a 11.39,11.39 0 0 0 -4,-2.56 l -19.09,399.46 a 11.35,11.35 0 0 0 3.29,-0.13 l 136.23,-27.64 v 0 L 720.43,386.79"
                   id="path64" />
              </g>
              <g
                 id="g68">
                <path
                   transform="translate(7.922824e-6)"
                   id="path60"
                   d="m 503.34,254.48 c 4.56,-18.58 26.58,-97 69.48,-81.84 a 5.94,5.94 0 0 1 2,1.21 c 3.32,3 13.44,14.8 13,45 -0.07,4.59 3.72,8 7.71,6.92 l 0.92,-0.26 a 6.83,6.83 0 0 0 4.71,-6.67 c 0.05,-15.26 -3,-57.86 -38.81,-62.82 a 5.32,5.32 0 0 0 -1,-0.06 c -5.22,0.16 -48.25,4.19 -70,94.87 -1.23,5.12 2.9,9.84 7.5,8.56 v 0 a 6.59,6.59 0 0 0 4.49,-4.91 z"
                   class="cls-2" />
                <path
                   transform="translate(7.922824e-6)"
                   id="path62"
                   d="m 380.42,273.36 a 1.4,1.4 0 0 1 1,-1.16 l 51.28,-15.78 190.11,-58 a 1.37,1.37 0 0 1 0.85,0 l 5.28,1.76 a 1.37,1.37 0 0 1 0.55,0.34 L 656.94,228 a 1.37,1.37 0 0 0 0.91,0.41 l 38.44,1.92 a 1.39,1.39 0 0 1 1.3,1.19 L 747.38,570 a 1.38,1.38 0 0 1 -1.1,1.56 l -136.84,27.78 a 1.35,1.35 0 0 1 -0.53,0 L 347.73,551.49 A 1.38,1.38 0 0 1 346.6,550 Z"
                   class="cls-3" />
                <text
                   transform="translate(433.96,473.84)"
                   id="text67"
                   class="cls-5">e</text>
                <polygon
                   id="polygon71"
                   points="180.03,603 519.05,603 180.03,649.97 "
                   class="cls-2" />
                <polygon
                   id="polygon73"
                   points="320.94,638.23 332.68,667.58 520.55,608.87 "
                   class="cls-7" />
                <path
                   d="m 748.09,566.65 -19,-10.59 L 697.2,539 684.42,534.54 c -10.87,-2.28 -21.77,-9.63 -33.29,-10.33 -4.35,-0.26 -9.18,0.36 -12.63,-2.31 -3.27,-2.53 -2.76,-7.19 -3,-11 -0.38,-6.92 8.07,-16.37 14.24,-18.35 a 21.84,21.84 0 0 1 7.12,-0.79 c 8.76,0.19 17.87,4.48 26.64,4.29 a 1.57,1.57 0 0 0 1.16,-2.59 c -2.78,-3.13 -7.42,-6.1 -10.24,-8.57 l -13.18,-11.51 -26.35,-23 -25.51,-22.28 c -5.58,-4.87 -16.23,-11.73 -17.37,-19.43 a 11.89,11.89 0 0 1 2,-8 c 3,-4.77 7.38,-11 13.31,-12.15 8.56,-1.6 16.27,7.65 22.16,12.45 8.52,6.93 16.44,14.56 24.91,21.54 l 35,28.82 1.76,1.45 a 1.56,1.56 0 0 0 2.18,-0.19 v 0 a 1.57,1.57 0 0 0 -0.18,-2.2 l -15.29,-13 c -6.88,-5.86 -21.16,-14.34 -21.77,-24.39 -0.33,-5.38 9.12,-13.82 14.19,-14.24 8.18,-0.68 19.51,10.22 25.43,15.27 l 21.19,18 2.18,-0.17 -2.4,-4 a 1.7,1.7 0 0 0 -0.33,-0.38 L 702.82,416 c -6,-5.11 -14.18,-10.42 -17.92,-17.55 -3.53,-6.74 1.93,-12.78 8.22,-15.07 10.85,-4 19.36,1.75 28.84,6"
                   class="cls-1"
                   id="Hand" />
              </g>
              <path
                 class="cls-1"
                 d="m 598,427.52 c -12.55,-6.6 -17.88,-21.15 -11.91,-32.49 5.97,-11.34 21,-15.17 33.53,-8.56 a 27.9,27.9 0 0 1 7.28,5.6 24.91,24.91 0 0 0 -10.79,-11.19 c -12.55,-6.61 -28.25,-1.46 -35.07,11.5 -6.82,12.96 -2.18,28.81 10.37,35.42 a 25,25 0 0 0 15.33,2.56 27.62,27.62 0 0 1 -8.74,-2.84 z"
                 id="path84" />
            </g>
          </g>
        </g>
      </g>
    </g>
  </g>
</svg>
